<svg xmlns="http://www.w3.org/2000/svg" viewBox="0 0 256 256" role="img" aria-label="Red Lion sign">
  <rect width="256" height="256" rx="24" fill="#6a0f0f"/>
  <rect x="12" y="12" width="232" height="232" rx="18" fill="none" stroke="#f2d48d" stroke-width="8"/>
  <text x="128" y="52" text-anchor="middle" font-family="Georgia,serif" font-size="30" fill="#f6e8c3">RED LION</text>
  <g transform="translate(36,62)">
    <path d="M76 112c-18 0-34-14-34-34V56c0-15 12-27 27-27h16c10 0 19 5 24 13l13 21h20c8 0 14 6 14 14v7c0 8-6 14-14 14h-16l-12 16v10h-38z" fill="#d73a31"/>
    <circle cx="76" cy="47" r="14" fill="#d73a31"/>
    <circle cx="84" cy="44" r="2.8" fill="#111"/>
    <path d="M65 122h55" stroke="#f6e8c3" stroke-width="8" stroke-linecap="round"/>
    <path d="M38 90h18M34 74h16M34 106h16" stroke="#f6e8c3" stroke-width="6" stroke-linecap="round"/>
  </g>
</svg>
